<svg width="27" height="30" viewBox="0 0 27 30" fill="none" xmlns="http://www.w3.org/2000/svg">
<g clip-path="url(#clip0_309_8374)">
<path d="M25.4262 3.86373L22.3863 0.82377C21.8588 0.296323 21.1435 3.90045e-06 20.3975 0L10.3125 0C8.75918 0 7.5 1.25918 7.5 2.8125V5.625H2.8125C1.25918 5.625 0 6.88418 0 8.4375V27.1875C0 28.7408 1.25918 30 2.8125 30H15.9375C17.4908 30 18.75 28.7408 18.75 27.1875V24.375H23.4375C24.9908 24.375 26.25 23.1158 26.25 21.5625V5.85246C26.25 5.10654 25.9537 4.39117 25.4262 3.86373ZM15.5859 27.1875H3.16406C3.07082 27.1875 2.9814 27.1505 2.91547 27.0845C2.84954 27.0186 2.8125 26.9292 2.8125 26.8359V8.78906C2.8125 8.69582 2.84954 8.6064 2.91547 8.54047C2.9814 8.47454 3.07082 8.4375 3.16406 8.4375H7.5V21.5625C7.5 23.1158 8.75918 24.375 10.3125 24.375H15.9375V26.8359C15.9375 26.9292 15.9005 27.0186 15.8345 27.0845C15.7686 27.1505 15.6792 27.1875 15.5859 27.1875ZM23.0859 21.5625H10.6641C10.5708 21.5625 10.4814 21.5255 10.4155 21.4595C10.3495 21.3936 10.3125 21.3042 10.3125 21.2109V3.16406C10.3125 3.07082 10.3495 2.9814 10.4155 2.91547C10.4814 2.84954 10.5708 2.8125 10.6641 2.8125H16.875V7.96875C16.875 8.74541 17.5046 9.375 18.2812 9.375H23.4375V21.2109C23.4375 21.3042 23.4005 21.3936 23.3345 21.4595C23.2686 21.5255 23.1792 21.5625 23.0859 21.5625ZM23.4375 6.5625H19.6875V2.8125H20.2519C20.3451 2.8125 20.4345 2.84953 20.5005 2.91545L23.3346 5.74951C23.3672 5.78216 23.3931 5.82092 23.4108 5.86358C23.4284 5.90624 23.4375 5.95195 23.4375 5.99812V6.5625Z" fill="#2B4880"/>
</g>
<defs>
<clipPath id="clip0_309_8374">
<rect width="26.25" height="30" fill="white"/>
</clipPath>
</defs>
</svg>
